<svg xmlns="http://www.w3.org/2000/svg" width="48" height="48" viewBox="0 0 48 48"><path fill="#202020" d="M30 25.2V14.8l-6 3.5-6-3.5v10.4l-3 1.7 9 5.2 14.9-8.6V27L24 35.5 9.1 26.9l6-3.5V13.1l3-1.7 6 3.5 6-3.5 3 1.7V20l3-1.7v-6.9L24 4.5l-12 6.9v10.4l-3 1.7V9.6L24 1l14.9 8.6V20L30 25.2zM9.6 44.6l2.3-2.6v5h2v-8h-1.7l-2.6 3L7 39H5.3v8h2v-5l2.3 2.6zM20.8 39H18l-2.9 8h2l.6-1.7h3.4l.6 1.7h2l-2.9-8zm-2.6 4.9l1.2-3.3 1.2 3.3h-2.4zM32.9 39v4.6c0 1.3-.8 2.4-2 3-.6.3-1.3.5-2 .5s-1.4-.2-2-.5c-1.2-.6-2-1.7-2-3V39h2v4.6c0 1 .9 1.7 2 1.7s2-.8 2-1.7V39h2zm6.5 4l3.3 4h-2l-2.3-2.8-2.3 2.8h-2l3.3-4-3.3-4h2l2.3 2.8 2.3-2.8h2l-3.3 4z"/></svg>