<svg xmlns="http://www.w3.org/2000/svg" width="216" height="48" viewBox="0 0 216 48"><path fill="#FFF" d="M12.8 18.3V47H1.2V1h9.9l14.8 17.1L40.6 1h9.9v46H38.9V18.3l-13 15.1-13.1-15.1zM106.4 47H94.9l-3.5-9.9H72.1L68.6 47H57.1L73.8 1h15.8l16.8 46zM88.5 29.1l-6.8-19-6.8 19h13.6zM147.4 1v26.3c0 5.4-5.1 9.9-11.5 9.9s-11.5-4.4-11.5-9.9V1h-11.5v26.3c0 7.3 4.6 13.7 11.5 17.1 3.4 1.7 7.3 2.6 11.5 2.6s8.1-1 11.5-2.6c6.9-3.4 11.5-9.8 11.5-17.1V1h-11.5zm67.4 0h-11.5l-13.1 16L177 1h-11.5l18.9 23-18.9 23H177l13.1-16 13.1 16h11.5l-18.9-23 19-23z"/></svg>