<svg xmlns="http://www.w3.org/2000/svg" width="124" height="48" viewBox="0 0 124 48"><path fill="#FFF" d="M29.1 33.2V19.4l-8 4.6-8-4.6v13.8l-4 2.3 12 6.9L41 30.9v4.6L21.2 47 1.3 35.5l8-4.6V17.1l4-2.3 8 4.6 8-4.6 4 2.3v9.2l4-2.3v-9.2L21.2 5.6l-16 9.2v13.8l-4 2.3V12.5L21.2 1l19.9 11.5v13.8l-12 6.9zm27.5-5.9l4.6-5.3v10h4.1V16h-3.4l-5.2 6-5.2-6H48v16.1h4.1V22l4.5 5.3zM78.9 16h-5.5l-5.9 16.1h4l1.2-3.5h6.7l1.2 3.5h4L78.9 16zm-5.1 9.8l2.4-6.7 2.4 6.7h-4.8zm29.4-9.8v9.2c0 2.6-1.6 4.8-4 6-1.2.6-2.6.9-4 .9s-2.8-.3-4-.9c-2.4-1.2-4-3.4-4-6V16h4v9.2c0 1.9 1.8 3.4 4 3.4s4-1.5 4-3.4V16h4zm12.9 8l6.6 8.1h-4l-4.6-5.6-4.6 5.6h-4l6.6-8.1-6.6-8h4l4.6 5.6 4.6-5.6h4l-6.6 8z"/></svg>